<svg width="20" height="21" viewBox="0 0 20 21" fill="none" xmlns="http://www.w3.org/2000/svg">
  <g clip-path="url(#clip0_49_8927)">
    <path
      d="M19.805 10.8326C19.805 10.1529 19.7499 9.46943 19.6323 8.80068H10.2V12.6515H15.6015C15.3773 13.8935 14.6571 14.9921 13.6026 15.6903V18.1889H16.825C18.7174 16.4472 19.805 13.8751 19.805 10.8326Z"
      fill="#4285F4" />
    <path
      d="M10.2 20.603C12.897 20.603 15.1715 19.7174 16.8287 18.1889L13.6062 15.6903C12.7096 16.3002 11.5522 16.6456 10.2037 16.6456C7.5948 16.6456 5.38279 14.8855 4.58911 12.5192H1.26373V15.095C2.96133 18.4718 6.41898 20.603 10.2 20.603Z"
      fill="#34A853" />
    <path
      d="M4.58546 12.5192C4.16657 11.2772 4.16657 9.93239 4.58546 8.69043V6.11465H1.26376C-0.154572 8.94029 -0.154572 12.2693 1.26376 15.095L4.58546 12.5192Z"
      fill="#FBBC04" />
    <path
      d="M10.2 4.56034C11.6257 4.5383 13.0036 5.07477 14.0361 6.05952L16.8911 3.20448C15.0833 1.50688 12.6839 0.573573 10.2 0.602969C6.41898 0.602969 2.96133 2.73415 1.26373 6.11463L4.58543 8.69042C5.37544 6.3204 7.59113 4.56034 10.2 4.56034Z"
      fill="#EA4335" />
  </g>
  <defs>
    <clipPath id="clip0_49_8927">
      <rect width="20" height="20" fill="white" transform="translate(0 0.602295)" />
    </clipPath>
  </defs>
</svg>