<svg width="21" height="21" viewBox="0 0 21 21" fill="none" xmlns="http://www.w3.org/2000/svg">
  <g clip-path="url(#clip0_49_8934)">
    <path
      d="M19.0236 0.602295H1.97639C1.58483 0.602295 1.2093 0.757843 0.932425 1.03472C0.655548 1.3116 0.5 1.68712 0.5 2.07868V19.1259C0.5 19.5175 0.655548 19.893 0.932425 20.1699C1.2093 20.4467 1.58483 20.6023 1.97639 20.6023H19.0236C19.4152 20.6023 19.7907 20.4467 20.0676 20.1699C20.3445 19.893 20.5 19.5175 20.5 19.1259V2.07868C20.5 1.68712 20.3445 1.3116 20.0676 1.03472C19.7907 0.757843 19.4152 0.602295 19.0236 0.602295ZM6.46111 17.6398H3.45417V8.08841H6.46111V17.6398ZM4.95556 6.7648C4.61447 6.76287 4.2816 6.65996 3.99895 6.46903C3.71629 6.27811 3.49653 6.00774 3.3674 5.69204C3.23826 5.37633 3.20554 5.02945 3.27336 4.69517C3.34118 4.36089 3.5065 4.05419 3.74846 3.81378C3.99042 3.57337 4.29818 3.41002 4.63289 3.34435C4.9676 3.27867 5.31426 3.31362 5.62913 3.44478C5.94399 3.57594 6.21295 3.79743 6.40205 4.08131C6.59116 4.36518 6.69194 4.6987 6.69167 5.0398C6.69488 5.26816 6.65209 5.49483 6.56584 5.7063C6.47959 5.91777 6.35165 6.10971 6.18964 6.27068C6.02763 6.43166 5.83487 6.55836 5.62285 6.64325C5.41083 6.72814 5.18389 6.76948 4.95556 6.7648ZM17.5444 17.6481H14.5389V12.4301C14.5389 10.8912 13.8847 10.4162 13.0403 10.4162C12.1486 10.4162 11.2736 11.0884 11.2736 12.469V17.6481H8.26667V8.09535H11.1583V9.41896H11.1972C11.4875 8.83146 12.5042 7.8273 14.0556 7.8273C15.7333 7.8273 17.5458 8.82313 17.5458 11.7398L17.5444 17.6481Z"
      fill="#0A66C2" />
  </g>
  <defs>
    <clipPath id="clip0_49_8934">
      <rect width="20" height="20" fill="white" transform="translate(0.5 0.602295)" />
    </clipPath>
  </defs>
</svg>